<svg height="512pt" viewBox="0 -7 512 511" width="512pt" xmlns="http://www.w3.org/2000/svg"><path d="m389.5 13.699219-34.199219 68.402343h-198.601562l-34.199219-68.402343 27-13.199219 25.800781 51.601562h161.398438l25.800781-51.601562zm0 0" fill="#53433f"/><path d="m355.300781 82.101562h-99.300781v-30h80.699219l25.800781-51.601562 27 13.199219zm0 0" fill="#3e322e"/><path d="m256 82.101562c-39.902344 0-60-48.601562-31.800781-76.800781l21.300781 21.300781c-6 5.699219-6 15.296876 0 21 2.699219 3 6.601562 4.5 10.5 4.5s7.800781-1.5 10.5-4.5c6-5.703124 6-15.300781 0-21l21.300781-21.300781c28.199219 28.199219 8.101563 76.800781-31.800781 76.800781zm0 0" fill="#53433f"/><path d="m287.800781 5.300781-21.300781 21.300781c6 5.699219 6 15.296876 0 21-2.699219 3-6.601562 4.5-10.5 4.5v30c39.902344 0 60-48.601562 31.800781-76.800781zm0 0" fill="#3e322e"/><path d="m256 52.101562c-33 0-60 27-60 60s27 60 60 60 60-27 60-60-27-60-60-60zm0 0" fill="#53433f"/><path d="m56.605469 497.707031-21.210938-21.210937 25.605469-25.605469v-95.492187l74.515625-18.632813 7.265625 29.089844-51.78125 12.949219v84.507812zm0 0" fill="#53433f"/><path d="m455.394531 497.707031-34.394531-34.394531v-84.507812l-51.78125-12.949219 7.265625-29.089844 74.515625 18.632813v95.492187l25.605469 25.605469zm0 0" fill="#3e322e"/><path d="m82.210938 202.101562h-51.210938v-30h38.789062l64.628907-64.628906 78.414062 56.484375-17.550781 24.34375-57.699219-41.570312zm0 0" fill="#53433f"/><path d="m37.210938 322.101562h-37.210938v-30h24.789062l60-60h67.207032v30h-54.785156zm0 0" fill="#53433f"/><g fill="#3e322e"><path d="m512 322.101562h-37.210938l-60-60h-54.785156v-30h67.207032l60 60h24.789062zm0 0"/><path d="m481 202.101562h-51.210938l-55.371093-55.371093-57.699219 41.570312-17.550781-24.34375 78.414062-56.484375 64.628907 64.628906h38.789062zm0 0"/><path d="m316 112.101562c0 33-27 60-60 60v-120c33 0 60 27 60 60zm0 0"/></g><path d="m391 322.101562c0 75-50.398438 120-135 120s-135-45-135-120c0-25.5 5.699219-52.5 15.601562-77.703124l95.097657-15.296876 24.300781 2.699219 119.398438 12.597657c9.902343 25.203124 15.601562 52.203124 15.601562 77.703124zm0 0" fill="#53433f"/><path d="m391 322.101562c0 75-50.398438 120-135 120v-210.300781l119.398438 12.597657c9.902343 25.203124 15.601562 52.203124 15.601562 77.703124zm0 0" fill="#3e322e"/><path d="m359.199219 212.300781c-24.300781-40.5-61.199219-70.199219-103.199219-70.199219s-78.898438 29.699219-103.199219 70.199219c-6.300781 10.199219-11.699219 21-16.199219 32.097657 22.800782 29.101562 68.398438 47.703124 119.398438 47.703124 49.199219 0 94.5-17.703124 118.199219-45.902343.601562-.597657.898437-1.199219 1.199219-1.800781-4.496094-11.097657-9.898438-21.898438-16.199219-32.097657zm0 0" fill="#725d57"/><path d="m375.398438 244.398438c-.300782.601562-.597657 1.203124-1.199219 1.800781-23.699219 28.199219-69 45.902343-118.199219 45.902343v-150c42 0 78.898438 29.699219 103.199219 70.199219 6.300781 10.199219 11.703125 21 16.199219 32.097657zm0 0" fill="#53433f"/></svg>